<svg xmlns="http://www.w3.org/2000/svg" width="500" height="500" viewBox="0 0 500 500"><rect x="0" y="0" width="500" height="500" fill="#FFFFFF"/><g transform="translate(159.9294032023289,91.58316988978989)translate(94.63973799126641,93.5040611353712)rotate(0)translate(-94.63973799126641,-93.5040611353712) scale(0.37855895196506567,0.37855895196506567)" opacity="1"><defs class="defs"/><path fill="#421994" d="M485.876,280.507c-5.65,0-10.734,3.391-12.712,8.475l-93.221-18.359V151.13&#xA;&#9;c17.797-1.413,31.921-16.384,31.921-34.746c0-19.209-15.536-34.746-34.745-34.746c-11.019,0-20.622,5.085-27.119,12.712&#xA;&#9;l-99.436-68.079c1.131-2.26,1.694-5.084,1.694-7.91C252.259,8.192,244.067,0,233.898,0s-18.362,8.192-18.362,18.361&#xA;&#9;c0,10.17,8.192,18.362,18.362,18.362c5.084,0,9.887-2.26,13.277-5.65l99.717,68.079c-2.542,4.52-4.236,9.604-4.52,14.972&#xA;&#9;l-169.492,3.39c-4.52-16.102-19.209-27.966-36.723-27.966c-21.187,0-38.418,17.232-38.418,38.418&#xA;&#9;c0,13.56,7.062,25.424,17.514,32.204l-40.96,90.394c-6.497-2.822-13.56-4.236-20.904-4.236C23.729,246.045,0,269.773,0,299.152&#xA;&#9;c0,29.381,23.729,53.107,53.107,53.107c14.407,0,27.684-5.932,37.288-15.254l82.769,66.666c-1.978,3.674-3.107,7.91-3.107,12.43&#xA;&#9;c0,2.826,0.282,5.367,1.13,7.627l-89.266,44.633c-2.825-3.955-7.627-6.496-12.712-6.496c-8.757,0-15.819,7.063-15.819,15.818&#xA;&#9;s7.063,15.82,15.819,15.82c8.757,0,15.819-7.064,15.819-15.82c0-1.412-0.283-2.824-0.565-4.236l89.266-44.068&#xA;&#9;c4.52,7.629,12.712,12.996,22.316,12.996c13.277,0,24.293-10.172,25.706-22.883h114.971c3.673,21.188,22.316,37.57,44.634,37.57&#xA;&#9;c25.142,0,45.479-20.34,45.479-45.479c0-25.143-20.339-45.48-45.479-45.48c-0.564,0-0.848,0-1.131,0v-89.83l92.092,18.078&#xA;&#9;c0,7.627,6.215,13.842,13.842,13.842S500,301.978,500,294.349C500,286.722,493.785,280.507,485.876,280.507z M174.294,127.966&#xA;&#9;c0-1.695,0-3.107-0.283-4.802l168.644-3.39c0.848,8.192,4.52,15.537,9.887,20.904l-44.633,51.978&#xA;&#9;c-14.972-12.429-34.181-19.774-55.085-19.774c-17.514,0-34.18,5.367-47.739,14.407l-37.289-37.853&#xA;&#9;C171.751,143.221,174.294,135.876,174.294,127.966z M328.249,260.169c0,41.809-33.899,75.988-75.989,75.988&#xA;&#9;c-41.808,0-75.989-33.898-75.989-75.988c0-38.135,28.249-69.773,64.972-75.142h0.282c1.413-0.283,2.825-0.283,4.237-0.565&#xA;&#9;c0.283,0,0.848,0,1.13,0c1.695,0,3.39-0.283,4.803-0.283l0,0l0,0l0,0c1.977,0,4.236,0,6.215,0.283c0.281,0,0.564,0,0.847,0&#xA;&#9;c1.978,0.282,3.955,0.565,5.933,0.847c0.283,0,0.564,0,0.564,0C301.412,191.808,328.249,222.882,328.249,260.169z M79.378,252.826&#xA;&#9;l40.678-90.113c4.802,2.26,10.169,3.39,15.819,3.39c11.017,0,21.187-4.802,28.249-12.429L200,190.396&#xA;&#9;c-20.904,16.102-34.463,41.243-34.463,69.49c0,3.955,0.283,7.91,0.848,11.865l-61.299,15.818&#xA;&#9;C101.695,272.599,92.09,260.169,79.378,252.826z M196.045,390.396c-7.627,0-14.689,3.391-19.209,8.756L94.633,333.05&#xA;&#9;c7.627-9.322,12.147-20.904,12.147-33.898c0-1.977-0.283-4.236-0.283-6.215l61.299-15.816c5.933,29.096,26.836,53.105,54.237,63.559&#xA;&#9;l-20.621,50C199.152,390.677,197.74,390.396,196.045,390.396z M335.876,411.298c0,0.848,0,1.414,0,2.26H221.751&#xA;&#9;c-1.13-9.32-7.062-17.229-15.254-20.902l20.622-50c8.192,2.543,16.667,3.955,25.424,3.955c22.033,0,42.372-8.475,57.627-22.033&#xA;&#9;l38.135,55.365C340.678,388.136,335.876,399.152,335.876,411.298z M374.294,366.384c-8.192,1.129-15.537,4.521-21.752,9.605&#xA;&#9;l-38.418-55.367c13.56-13.842,22.6-32.203,24.576-52.543l35.312,7.063v91.244h0.282V366.384z M374.294,269.492l-35.028-6.779&#xA;&#9;c0-0.848,0-1.693,0-2.541c0-24.859-10.451-47.458-27.4-63.277l44.915-52.542c5.085,3.672,11.018,5.932,17.515,6.497L374.294,269.492&#xA;&#9;L374.294,269.492z" class="color c1"/></g><g transform="translate(229.63027656477442,165.04439592430862)translate(24.947182366396316,24.947182366396316)rotate(0)translate(-24.947182366396316,-24.947182366396316) scale(1,1)" opacity="1"><linearGradient class="linearGradient" x1="0%" y1="0%" x2="0%" y2="100%" gradientTransform="translate(0.5,0.5) rotate(136) translate(-0.5,-0.5)" id="linearGradientcc75ea0d19667c83f072fe278f075775">
		<stop id="stop1" offset="0%" class="linearGradientColor1" stop-color="#421994"/>
		<stop id="stop2" offset="83.99532710280374%" class="linearGradientColor2" stop-color="#ff0051"/>
	</linearGradient><radialGradient class="radialGradient" cx="50%" cy="50%" r="50%" fx="50%" fy="50%">
		<stop offset="0%" class="radialGradientColor1" stop-color="#05a"/>
		<stop offset="100%" class="radialGradientColor2" stop-color="#0a5"/>
	</radialGradient><clipPath id="clipcc75ea0d19667c83f072fe278f075775" class="clipPath">
		<ellipse fill="none" class="element" stroke="#dddddd" stroke-width="1" stroke-miterlimit="10" cx="24" cy="24" rx="24" ry="24"/>
	</clipPath><ellipse class="fill-color element" fill="url(#linearGradientcc75ea0d19667c83f072fe278f075775)" opacity="1" cx="24" cy="24" rx="23" ry="23" clip-path="url(#clipcc75ea0d19667c83f072fe278f075775)"/><ellipse class="stroke-color element" fill="none" stroke="#dddddd" stroke-width="0" stroke-miterlimit="10" cx="24" cy="24" rx="24" ry="24" clip-path="url(#clipcc75ea0d19667c83f072fe278f075775)"/></g><g transform="translate(240.5349344978166,176.3980037429821)translate(5.778176336036311,5.778176336036311)rotate(0)translate(-5.778176336036311,-5.778176336036311) scale(1,1)" opacity="1"><linearGradient class="linearGradient" x1="0%" y1="0%" x2="0%" y2="100%" gradientTransform="translate(0.5,0.5) rotate(0) translate(-0.5,-0.5)">
		<stop id="stop1" offset="0%" class="linearGradientColor1" stop-color="#05a"/>
		<stop id="stop2" offset="100%" class="linearGradientColor2" stop-color="#0a5"/>
	</linearGradient><radialGradient class="radialGradient" cx="50%" cy="50%" r="50%" fx="50%" fy="50%">
		<stop offset="0%" class="radialGradientColor1" stop-color="#05a"/>
		<stop offset="100%" class="radialGradientColor2" stop-color="#0a5"/>
	</radialGradient><clipPath id="clipb8b90087ffdaddf429809aa42d8db9d7" class="clipPath">
		<ellipse fill="none" class="element" stroke="#dddddd" stroke-width="1" stroke-miterlimit="10" cx="5" cy="5" rx="5" ry="5"/>
	</clipPath><ellipse class="fill-color element" fill="#ffffff" opacity="1" cx="5" cy="5" rx="4" ry="4" clip-path="url(#clipb8b90087ffdaddf429809aa42d8db9d7)"/><ellipse class="stroke-color element" fill="none" stroke="#dddddd" stroke-width="0" stroke-miterlimit="10" cx="5" cy="5" rx="5" ry="5" clip-path="url(#clipb8b90087ffdaddf429809aa42d8db9d7)"/></g><g transform="translate(240.25000000000003,237.6999969482422)translate(9.75,12.300003051757812)rotate(0)translate(-9.75,-12.300003051757812)" opacity="1"><path transform="translate(6,15.395715004301753)rotate(0)" d="" fill="#000000"/></g><g transform="translate(149.18280220031784,290.9197264647629)translate(105.61940002441406,32.04999542236328)rotate(0)translate(-105.61940002441406,-32.04999542236328)" opacity="1"><path transform="translate(6,38.84)rotate(0)" d="M8.02-34.56L22.37-17.47L36.72-34.56L42.05-34.56L42.05 0L38.16 0L38.16-30.14L22.37-11.38L6.58-30.14L6.58 0L2.69 0L2.69-34.56L8.02-34.56ZM81.84 0L47.28 0L47.28-34.61L51.17-34.61L51.17-3.89L81.84-3.89L81.84 0ZM84.62 0L84.62-34.51L113.42-34.51L113.42-34.51Q115.82-34.51 117.50-32.83L117.50-32.83L117.50-32.83Q119.18-31.15 119.18-28.75L119.18-28.75L119.18-18.62L119.18-18.62Q119.18-16.22 117.50-14.54L117.50-14.54L117.50-14.54Q115.82-12.86 113.42-12.86L113.42-12.86L90.38-12.86L90.38-12.86Q89.95-12.86 88.51-13.06L88.51-13.06L88.51 0L84.62 0ZM115.30-18.62L115.30-18.62L115.30-28.75L115.30-28.75Q115.30-29.52 114.74-30.07L114.74-30.07L114.74-30.07Q114.19-30.62 113.42-30.62L113.42-30.62L90.38-30.62L90.38-30.62Q89.62-30.62 89.06-30.07L89.06-30.07L89.06-30.07Q88.51-29.52 88.51-28.75L88.51-28.75L88.51-18.62L88.51-18.62Q88.51-17.86 89.06-17.33L89.06-17.33L89.06-17.33Q89.62-16.80 90.38-16.80L90.38-16.80L113.42-16.80L113.42-16.80Q114.19-16.80 114.74-17.33L114.74-17.33L114.74-17.33Q115.30-17.86 115.30-18.62ZM157.10-28.75L157.10-28.75L157.10-18.62L157.10-18.62Q157.10-16.22 155.42-14.54L155.42-14.54L155.42-14.54Q153.74-12.86 151.34-12.86L151.34-12.86L146.06-12.86L156.91 0L151.78 0L140.98-12.86L128.30-12.86L128.30-12.86Q127.87-12.86 126.43-13.06L126.43-13.06L126.43 0L122.54 0L122.54-34.51L151.34-34.51L151.34-34.51Q153.74-34.51 155.42-32.83L155.42-32.83L155.42-32.83Q157.10-31.15 157.10-28.75ZM128.30-16.80L128.30-16.80L151.34-16.80L151.34-16.80Q152.11-16.80 152.64-17.33L152.64-17.33L152.64-17.33Q153.17-17.86 153.17-18.62L153.17-18.62L153.17-28.75L153.17-28.75Q153.17-29.52 152.64-30.07L152.64-30.07L152.64-30.07Q152.11-30.62 151.34-30.62L151.34-30.62L128.30-30.62L128.30-30.62Q127.54-30.62 126.98-30.07L126.98-30.07L126.98-30.07Q126.43-29.52 126.43-28.75L126.43-28.75L126.43-18.62L126.43-18.62Q126.43-17.86 126.98-17.33L126.98-17.33L126.98-17.33Q127.54-16.80 128.30-16.80ZM167.86-34.56L167.86-34.56L190.90-34.56L190.90-34.56Q193.30-34.56 194.98-32.88L194.98-32.88L194.98-32.88Q196.66-31.20 196.66-28.80L196.66-28.80L196.66-5.76L196.66-5.76Q196.66-3.36 194.98-1.68L194.98-1.68L194.98-1.68Q193.30 0 190.90 0L190.90 0L167.86 0L167.86 0Q165.46 0 163.78-1.68L163.78-1.68L163.78-1.68Q162.10-3.36 162.10-5.76L162.10-5.76L162.10-28.80L162.10-28.80Q162.10-31.20 163.78-32.88L163.78-32.88L163.78-32.88Q165.46-34.56 167.86-34.56ZM167.86-3.89L167.86-3.89L190.90-3.89L190.90-3.89Q191.66-3.89 192.22-4.44L192.22-4.44L192.22-4.44Q192.77-4.99 192.77-5.76L192.77-5.76L192.77-28.80L192.77-28.80Q192.77-29.57 192.22-30.12L192.22-30.12L192.22-30.12Q191.66-30.67 190.90-30.67L190.90-30.67L167.86-30.67L167.86-30.67Q167.09-30.67 166.54-30.12L166.54-30.12L166.54-30.12Q165.98-29.57 165.98-28.80L165.98-28.80L165.98-5.76L165.98-5.76Q165.98-4.99 166.54-4.44L166.54-4.44L166.54-4.44Q167.09-3.89 167.86-3.89Z" fill="#3B3B3B"/></g></svg>