<svg xmlns="http://www.w3.org/2000/svg" xmlns:xlink="http://www.w3.org/1999/xlink" version="1.1" width="549px" height="341px" viewBox="-0.5 -0.5 549 341"><defs><linearGradient x1="0%" y1="0%" x2="0%" y2="100%" id="mx-gradient-dae8fc-1-ffffff-1-s-0"><stop offset="0%" style="stop-color: rgb(218, 232, 252); stop-opacity: 1;"/><stop offset="100%" style="stop-color: rgb(255, 255, 255); stop-opacity: 1;"/></linearGradient><clipPath id="mx-clip-4-45-262-34-0"><rect x="4" y="45" width="262" height="34"/></clipPath><clipPath id="mx-clip-4-101-262-26-0"><rect x="4" y="101" width="262" height="26"/></clipPath><clipPath id="mx-clip-4-127-262-18-0"><rect x="4" y="127" width="262" height="18"/></clipPath><clipPath id="mx-clip-24-313-222-26-0"><rect x="24" y="313" width="222" height="26"/></clipPath><clipPath id="mx-clip-304-153-222-26-0"><rect x="304" y="153" width="222" height="26"/></clipPath></defs><g><path d="M 300 40 L 300 0 L 530 0 L 530 40" fill="url(#mx-gradient-dae8fc-1-ffffff-1-s-0)" stroke="#6c8ebf" stroke-miterlimit="10" pointer-events="all"/><path d="M 300 40 L 300 50 L 530 50 L 530 40" fill="none" stroke="#6c8ebf" stroke-miterlimit="10" pointer-events="none"/><path d="M 300 40 L 530 40" fill="none" stroke="#6c8ebf" stroke-miterlimit="10" pointer-events="none"/><g fill="#000000" font-family="Helvetica" font-weight="bold" font-style="italic" pointer-events="none" text-anchor="middle" font-size="14px"><text x="414.5" y="19.5">Player</text><text x="414.5" y="36.5">(MLPro-RL.Agent)</text></g><path d="M 300 44 L 530 44" fill="none" stroke="#000000" stroke-miterlimit="10" pointer-events="none"/><path d="M 0 40 L 0 0 L 270 0 L 270 40" fill="url(#mx-gradient-dae8fc-1-ffffff-1-s-0)" stroke="#6c8ebf" stroke-miterlimit="10" pointer-events="none"/><path d="M 0 40 L 0 150 L 270 150 L 270 40" fill="none" stroke="#6c8ebf" stroke-miterlimit="10" pointer-events="none"/><path d="M 0 40 L 270 40" fill="none" stroke="#6c8ebf" stroke-miterlimit="10" pointer-events="none"/><g fill="#000000" font-family="Helvetica" font-weight="bold" font-style="italic" pointer-events="none" text-anchor="middle" font-size="14px"><text x="134.5" y="19.5">GameBoard</text><text x="134.5" y="36.5">(MLPro-RL.Environment)</text></g><g fill="#000000" font-family="Helvetica" pointer-events="none" clip-path="url(#mx-clip-4-45-262-34-0)" font-size="13px"><text x="5.5" y="58.5">C_REWARD_TYPE  =</text><text x="5.5" y="74.5">    C_TYPE_EVERY_AGENT</text></g><path d="M 0 85 L 270 85" fill="none" stroke="#000000" stroke-miterlimit="10" pointer-events="none"/><g fill="#000000" font-family="Helvetica" font-weight="bold" pointer-events="none" clip-path="url(#mx-clip-4-101-262-26-0)" font-size="13px"><text x="5.5" y="114.5">compute_reward( p_state): Reward</text></g><g fill="#0000FF" font-family="Helvetica" font-weight="bold" pointer-events="none" clip-path="url(#mx-clip-4-127-262-18-0)" font-size="13px"><text x="5.5" y="140.5">_utility_fct( p_state:rl.State, p_player_id)</text></g><path d="M 300 222.5 L 300 228 L 170 228 L 170 158.12" fill="none" stroke="#000000" stroke-miterlimit="10" pointer-events="none"/><path d="M 170 151.12 L 173.5 158.12 L 166.5 158.12 Z" fill="#000000" stroke="#000000" stroke-miterlimit="10" pointer-events="none"/><path d="M 530 222.5 L 530 228 L 540 228 L 540 90 L 440 90 L 440 58.12" fill="none" stroke="#000000" stroke-miterlimit="10" pointer-events="none"/><path d="M 440 51.12 L 443.5 58.12 L 436.5 58.12 Z" fill="#000000" stroke="#000000" stroke-miterlimit="10" pointer-events="none"/><path d="M 300 250 L 300 210 L 530 210 L 530 250" fill="url(#mx-gradient-dae8fc-1-ffffff-1-s-0)" stroke="#6c8ebf" stroke-miterlimit="10" pointer-events="none"/><path d="M 300 250 L 300 260 L 530 260 L 530 250" fill="none" stroke="#6c8ebf" stroke-miterlimit="10" pointer-events="none"/><path d="M 300 250 L 530 250" fill="none" stroke="#6c8ebf" stroke-miterlimit="10" pointer-events="none"/><g fill="#000000" font-family="Helvetica" font-weight="bold" font-style="italic" pointer-events="none" text-anchor="middle" font-size="14px"><text x="414.5" y="229.5">Game</text><text x="414.5" y="246.5">(MLPro-RL.RLScenario)</text></g><path d="M 300 254 L 530 254" fill="none" stroke="#000000" stroke-miterlimit="10" pointer-events="none"/><path d="M 135 260 L 130 260 L 130 190 L 130 158.12" fill="none" stroke="#000000" stroke-miterlimit="10" pointer-events="none"/><path d="M 130 151.12 L 133.5 158.12 L 126.5 158.12 Z" fill="none" stroke="#000000" stroke-miterlimit="10" pointer-events="none"/><path d="M 20 300 L 20 260 L 250 260 L 250 300" fill="url(#mx-gradient-dae8fc-1-ffffff-1-s-0)" stroke="#6c8ebf" stroke-miterlimit="10" pointer-events="none"/><path d="M 20 300 L 20 340 L 250 340 L 250 300" fill="none" stroke="#6c8ebf" stroke-miterlimit="10" pointer-events="none"/><path d="M 20 300 L 250 300" fill="none" stroke="#6c8ebf" stroke-miterlimit="10" pointer-events="none"/><g fill="#000000" font-family="Helvetica" font-weight="bold" font-style="italic" pointer-events="none" text-anchor="middle" font-size="14px"><text x="134.5" y="279.5">PGameBoard</text><text x="134.5" y="296.5">(Gameboard)</text></g><path d="M 20 304 L 250 304" fill="none" stroke="#000000" stroke-miterlimit="10" pointer-events="none"/><g fill="#000000" font-family="Helvetica" font-weight="bold" pointer-events="none" clip-path="url(#mx-clip-24-313-222-26-0)" font-size="13px"><text x="25.5" y="326.5">compute_potential()</text></g><path d="M 415 100 L 415 70 L 415 58.12" fill="none" stroke="#000000" stroke-miterlimit="10" pointer-events="none"/><path d="M 415 51.12 L 418.5 58.12 L 411.5 58.12 Z" fill="#000000" stroke="#000000" stroke-miterlimit="10" pointer-events="none"/><path d="M 300 140 L 300 100 L 530 100 L 530 140" fill="url(#mx-gradient-dae8fc-1-ffffff-1-s-0)" stroke="#6c8ebf" stroke-miterlimit="10" pointer-events="none"/><path d="M 300 140 L 300 180 L 530 180 L 530 140" fill="none" stroke="#6c8ebf" stroke-miterlimit="10" pointer-events="none"/><path d="M 300 140 L 530 140" fill="none" stroke="#6c8ebf" stroke-miterlimit="10" pointer-events="none"/><g fill="#000000" font-family="Helvetica" font-weight="bold" font-style="italic" pointer-events="none" text-anchor="middle" font-size="14px"><text x="414.5" y="119.5">MultiPlayer</text><text x="414.5" y="136.5">(MLPro-RL.MultiAgent)</text></g><path d="M 300 144 L 530 144" fill="none" stroke="#000000" stroke-miterlimit="10" pointer-events="none"/><g fill="#000000" font-family="Helvetica" font-weight="bold" pointer-events="none" clip-path="url(#mx-clip-304-153-222-26-0)" font-size="13px"><text x="305.5" y="166.5">add_player(p_player, p_weight=1.0)</text></g><path d="M 415 290 L 415 270 L 415 280 L 415 268.12" fill="none" stroke="#000000" stroke-miterlimit="10" pointer-events="none"/><path d="M 415 261.12 L 418.5 268.12 L 411.5 268.12 Z" fill="#000000" stroke="#000000" stroke-miterlimit="10" pointer-events="none"/><path d="M 300 330 L 300 290 L 530 290 L 530 330" fill="url(#mx-gradient-dae8fc-1-ffffff-1-s-0)" stroke="#6c8ebf" stroke-miterlimit="10" pointer-events="none"/><path d="M 300 330 L 300 340 L 530 340 L 530 330" fill="none" stroke="#6c8ebf" stroke-miterlimit="10" pointer-events="none"/><path d="M 300 330 L 530 330" fill="none" stroke="#6c8ebf" stroke-miterlimit="10" pointer-events="none"/><g fill="#000000" font-family="Helvetica" font-weight="bold" font-style="italic" pointer-events="none" text-anchor="middle" font-size="14px"><text x="414.5" y="309.5">GTTraining</text><text x="414.5" y="326.5">(MLPro-RL.RLTraining)</text></g><path d="M 300 334 L 530 334" fill="none" stroke="#000000" stroke-miterlimit="10" pointer-events="none"/></g></svg>